<svg xmlns="http://www.w3.org/2000/svg" width="84" height="31" viewBox="0 0 84 31">
    <g fill="none">
        <path fill="#A6A6A6" d="M77.094 0H6.674c-.256 0-.51 0-.766.002-.214.001-.427.005-.643.009-.47.006-.94.05-1.403.133-.463.084-.912.243-1.33.471-.42.23-.801.529-1.134.886-.334.356-.612.767-.824 1.218-.213.45-.36.932-.438 1.43-.078.498-.12 1-.125 1.505-.007.23-.008.461-.011.692v17.37c.003.234.004.46.01.693.006.504.048 1.007.126 1.505.077.498.225.98.438 1.43.212.45.49.86.824 1.214.331.358.714.657 1.133.886.42.228.868.388 1.331.474.464.081.933.126 1.403.133.216.005.429.008.643.008l.766.001h70.42l.76-.001c.212 0 .431-.003.644-.008.47-.007.938-.051 1.4-.133.465-.087.915-.246 1.336-.474.42-.229.801-.528 1.132-.886.334-.355.613-.765.827-1.213.212-.45.358-.934.434-1.431.078-.498.121-1 .13-1.505.002-.233.002-.46.002-.693.006-.273.006-.544.006-.822V7.166c0-.275 0-.548-.006-.82 0-.23 0-.462-.002-.692-.009-.504-.052-1.007-.13-1.505-.076-.497-.222-.98-.434-1.43-.432-.904-1.117-1.64-1.959-2.104-.42-.228-.87-.386-1.336-.471-.462-.083-.93-.127-1.4-.133-.213-.004-.432-.008-.645-.01L77.094 0z" transform="translate(0 .894)"/>
        <path fill="#000" d="M5.911 29.402c-.213 0-.421-.002-.633-.008-.438-.006-.875-.047-1.308-.122-.404-.075-.794-.213-1.16-.412-.362-.197-.692-.455-.978-.764-.29-.305-.53-.66-.714-1.05-.185-.391-.313-.811-.38-1.245-.072-.466-.111-.937-.117-1.409-.004-.158-.01-.686-.01-.686V6.346s.006-.52.01-.672c.006-.472.044-.942.116-1.407.067-.435.195-.856.38-1.25.183-.388.423-.743.711-1.05.288-.31.62-.569.982-.768C3.174 1 3.565.863 3.967.79 4.401.714 4.84.673 5.28.667l.632-.01H77.85l.639.01c.436.006.87.047 1.3.122.408.074.802.213 1.17.412.727.402 1.318 1.038 1.69 1.819.183.39.31.808.376 1.239.072.469.113.943.121 1.418.002.213.002.441.002.669.006.282.006.55.006.82v15.728c0 .273 0 .54-.006.808 0 .245 0 .469-.003.699-.008.467-.048.932-.12 1.393-.064.437-.192.86-.377 1.255-.185.385-.425.736-.711 1.041-.286.311-.617.57-.98.769-.367.2-.76.339-1.167.413-.433.076-.87.117-1.309.122-.205.006-.42.008-.628.008l-.759.002-71.183-.002z" transform="translate(0 .894)"/>
        <g fill="#FFF">
            <path d="M11.038 9.244c.016-1.275.638-2.453 1.65-3.12-.641-.983-1.677-1.584-2.794-1.622-1.175-.132-2.315.755-2.914.755-.61 0-1.533-.742-2.526-.72-1.307.046-2.495.824-3.131 2.05-1.354 2.517-.344 6.215.953 8.249.649.996 1.407 2.108 2.4 2.069.97-.043 1.333-.665 2.505-.665 1.16 0 1.501.665 2.513.64 1.042-.018 1.699-1 2.325-2.006.466-.71.825-1.494 1.063-2.324-1.238-.562-2.042-1.864-2.044-3.306zM9.126 3.164c.568-.732.848-1.673.78-2.623-.868.098-1.67.543-2.245 1.247-.569.695-.857 1.604-.8 2.527.879.01 1.714-.415 2.265-1.15z" transform="translate(0 .894) translate(6.3 6.012)"/>
            <g>
                <path d="M5.812 7.62H2.498l-.795 2.522H.299L3.437.81h1.459l3.138 9.332H6.607L5.812 7.62zm-2.97-1.164h2.626L4.173 2.362h-.036L2.84 6.456zM14.812 6.74c0 2.115-1.054 3.474-2.645 3.474-.822.046-1.597-.417-1.994-1.19h-.03v3.37H8.842V3.337h1.26V4.47h.023c.415-.77 1.19-1.231 2.018-1.203 1.608 0 2.669 1.365 2.669 3.474zm-1.337 0c0-1.377-.663-2.282-1.675-2.282-.994 0-1.663.924-1.663 2.283 0 1.37.669 2.289 1.663 2.289 1.012 0 1.675-.9 1.675-2.29zM21.787 6.74c0 2.115-1.054 3.474-2.645 3.474-.822.046-1.596-.417-1.994-1.19h-.03v3.37h-1.3V3.337h1.258V4.47h.024c.415-.77 1.19-1.231 2.018-1.203 1.609 0 2.67 1.365 2.67 3.474zm-1.337 0c0-1.377-.663-2.282-1.675-2.282-.994 0-1.662.924-1.662 2.283 0 1.37.668 2.289 1.662 2.289 1.012 0 1.675-.9 1.675-2.29zM26.397 7.542c.097.926.934 1.533 2.078 1.533 1.097 0 1.886-.607 1.886-1.442 0-.724-.476-1.158-1.603-1.455l-1.126-.292c-1.596-.413-2.337-1.215-2.337-2.515 0-1.61 1.307-2.716 3.163-2.716 1.836 0 3.096 1.106 3.138 2.716h-1.313c-.079-.932-.796-1.494-1.844-1.494s-1.765.569-1.765 1.397c0 .66.458 1.048 1.579 1.345l.957.252c1.784.453 2.525 1.222 2.525 2.587 0 1.746-1.296 2.84-3.356 2.84-1.928 0-3.23-1.068-3.313-2.756h1.331zM34.542 1.728v1.61h1.206v1.106h-1.206v3.751c0 .583.242.855.771.855.144-.003.286-.014.428-.033v1.1c-.238.047-.48.069-.722.064-1.283 0-1.784-.517-1.784-1.837v-3.9h-.921V3.338h.921v-1.61h1.307zM36.446 6.74c0-2.14 1.174-3.485 3.005-3.485 1.838 0 3.007 1.345 3.007 3.486 0 2.146-1.163 3.486-3.007 3.486-1.843 0-3.005-1.34-3.005-3.486zm4.686 0c0-1.468-.627-2.334-1.68-2.334-1.055 0-1.681.873-1.681 2.335 0 1.474.626 2.334 1.68 2.334 1.054 0 1.681-.86 1.681-2.334zM43.53 3.338h1.241v1.159h.03c.173-.746.81-1.26 1.524-1.23.15 0 .3.017.446.052v1.307c-.19-.062-.387-.09-.584-.085-.383-.016-.753.147-1.014.448-.26.301-.385.71-.342 1.118v4.035h-1.3V3.338zM52.769 8.144c-.175 1.235-1.295 2.083-2.729 2.083-1.844 0-2.988-1.326-2.988-3.454 0-2.134 1.15-3.518 2.933-3.518 1.754 0 2.856 1.293 2.856 3.356v.478h-4.476v.085c-.041.506.121 1.008.448 1.376.326.37.784.57 1.257.55.631.064 1.227-.325 1.464-.956h1.235zm-4.398-2.03h3.169c.024-.456-.13-.901-.426-1.229-.295-.328-.704-.508-1.129-.499-.427-.002-.839.179-1.142.503-.303.324-.473.765-.472 1.224z" transform="translate(0 .894) translate(6.3 6.012) translate(17.5 6.764)"/>
            </g>
        </g>
        <g fill="#FFF">
            <path d="M1.978.55c.553-.043 1.094.182 1.474.614.38.432.561 1.024.492 1.613 0 1.433-.722 2.256-1.966 2.256H.47V.55h1.508zm-.86 3.85h.788c.395.025.779-.142 1.046-.455.267-.313.389-.738.331-1.158.054-.419-.07-.84-.336-1.15-.267-.311-.649-.477-1.041-.454h-.788v3.216zM4.676 3.34c-.054-.607.217-1.194.7-1.515.482-.321 1.092-.321 1.574 0 .483.321.753.908.7 1.515.055.607-.216 1.195-.699 1.517-.483.322-1.094.322-1.576 0-.483-.322-.754-.91-.699-1.517zm2.334 0c0-.734-.307-1.163-.846-1.163-.54 0-.845.43-.845 1.163 0 .74.304 1.165.845 1.165.539 0 .846-.429.846-1.165zM11.601 5.033L10.956 5.033 10.305 2.541 10.255 2.541 9.607 5.033 8.967 5.033 8.099 1.649 8.73 1.649 9.294 4.232 9.341 4.232 9.989 1.649 10.585 1.649 11.234 4.232 11.283 4.232 11.845 1.649 12.467 1.649zM13.197 1.65h.6v.537h.046c.161-.396.54-.638.94-.603.311-.025.616.103.828.348.212.245.309.58.263.91v2.191h-.622V3.01c0-.543-.22-.814-.68-.814-.21-.01-.415.078-.56.243-.144.165-.215.39-.192.615v1.98h-.623V1.648zM16.866.328L17.488.328 17.488 5.033 16.866 5.033zM18.352 3.34c-.054-.607.217-1.194.7-1.515.482-.321 1.092-.321 1.575 0 .482.321.753.908.699 1.515.055.607-.216 1.195-.699 1.517-.482.322-1.093.322-1.576 0-.483-.322-.754-.91-.699-1.517zm2.334 0c0-.734-.307-1.163-.846-1.163-.54 0-.845.43-.845 1.163 0 .74.304 1.165.845 1.165.539 0 .846-.429.846-1.165zM21.98 4.076c0-.609.423-.96 1.173-1.01l.854-.053v-.292c0-.357-.22-.559-.646-.559-.347 0-.587.137-.656.376h-.603c.064-.581.573-.954 1.288-.954.79 0 1.236.422 1.236 1.137v2.312h-.599v-.475h-.049c-.203.347-.565.55-.947.531-.267.03-.534-.063-.734-.256-.2-.193-.315-.468-.316-.757zm2.027-.289v-.283l-.77.053c-.434.031-.63.19-.63.488 0 .305.245.482.584.482.2.022.4-.045.554-.184.154-.14.248-.34.262-.556zM25.444 3.34c0-1.07.512-1.747 1.308-1.747.402-.02.779.212.967.594h.046V.328h.622v4.705h-.596V4.5h-.049c-.202.379-.583.606-.99.59-.802 0-1.308-.677-1.308-1.75zm.642 0c0 .718.315 1.15.843 1.15.524 0 .848-.439.848-1.147 0-.705-.328-1.15-.848-1.15-.524 0-.843.435-.843 1.147zM30.961 3.34c-.054-.607.217-1.194.7-1.515.481-.321 1.092-.321 1.574 0s.753.908.699 1.515c.055.607-.216 1.195-.698 1.517-.483.322-1.094.322-1.577 0-.482-.322-.753-.91-.698-1.517zm2.333 0c0-.734-.307-1.163-.845-1.163-.541 0-.845.43-.845 1.163 0 .74.304 1.165.845 1.165.538 0 .845-.429.845-1.165zM34.769 1.65h.598v.537h.047c.162-.396.54-.638.94-.603.311-.025.616.103.828.348.212.245.31.58.264.91v2.191h-.622V3.01c0-.543-.22-.814-.68-.814-.211-.01-.416.078-.56.243-.145.165-.216.39-.193.615v1.98h-.622V1.648zM40.96.807v.858h.684v.562h-.683v1.74c0 .355.136.51.445.51.08 0 .159-.005.238-.015v.556c-.112.021-.225.033-.339.034-.692 0-.967-.261-.967-.914v-1.91h-.5v-.563h.5V.807h.623zM42.493.328h.617v1.865h.049c.17-.399.554-.641.961-.606.31-.018.61.113.82.357.21.244.307.575.266.905v2.184h-.623v-2.02c0-.54-.234-.814-.674-.814-.216-.019-.43.065-.583.23-.153.166-.23.396-.21.628v1.976h-.623V.328zM48.833 4.12c-.175.638-.75 1.05-1.366.979-.42.012-.824-.175-1.105-.512-.28-.336-.408-.788-.351-1.235-.056-.448.072-.9.35-1.24.28-.34.682-.532 1.103-.528.877 0 1.406.643 1.406 1.706v.233h-2.225v.037c-.02.252.06.5.22.685.16.184.384.288.62.285.303.04.6-.123.749-.41h.599zm-2.188-1.09h1.592c.016-.23-.06-.457-.207-.624-.148-.167-.355-.259-.57-.254-.216-.002-.426.089-.58.254-.153.165-.238.39-.235.623z" transform="translate(0 .894) translate(24.5 6.012)"/>
        </g>
    </g>
</svg>
