<svg xmlns="http://www.w3.org/2000/svg" width="95" height="31" viewBox="0 0 95 31">
    <defs>
        <linearGradient id="prefix__a" x1="59.668%" x2="29.394%" y1="4.947%" y2="71.916%">
            <stop offset="0%" stop-color="#00A0FF"/>
            <stop offset=".657%" stop-color="#00A1FF"/>
            <stop offset="26.01%" stop-color="#00BEFF"/>
            <stop offset="51.22%" stop-color="#00D2FF"/>
            <stop offset="76.04%" stop-color="#00DFFF"/>
            <stop offset="100%" stop-color="#00E3FF"/>
        </linearGradient>
        <linearGradient id="prefix__b" x1="107.621%" x2="-130.537%" y1="50.018%" y2="50.018%">
            <stop offset="0%" stop-color="#FFE000"/>
            <stop offset="40.87%" stop-color="#FFBD00"/>
            <stop offset="77.54%" stop-color="orange"/>
            <stop offset="100%" stop-color="#FF9C00"/>
        </linearGradient>
        <linearGradient id="prefix__c" x1="86.252%" x2="-50.188%" y1="28.214%" y2="148.172%">
            <stop offset="0%" stop-color="#FF3A44"/>
            <stop offset="100%" stop-color="#C31162"/>
        </linearGradient>
        <linearGradient id="prefix__d" x1="-18.771%" x2="42.12%" y1="-20.516%" y2="32.986%">
            <stop offset="0%" stop-color="#32A071"/>
            <stop offset="6.85%" stop-color="#2DA771"/>
            <stop offset="47.62%" stop-color="#15CF74"/>
            <stop offset="80.09%" stop-color="#06E775"/>
            <stop offset="100%" stop-color="#00F076"/>
        </linearGradient>
    </defs>
    <g fill="none">
        <path fill="#000" d="M91.481 30.06H3.52C1.583 30.06 0 28.37 0 26.303V3.758C0 1.69 1.583 0 3.519 0H91.48C93.417 0 95 1.69 95 3.758v22.545c0 2.066-1.583 3.757-3.519 3.757z" transform="translate(0 .894)"/>
        <path fill="#A6A6A6" d="M91.481.601c1.633 0 2.956 1.413 2.956 3.157v22.545c0 1.743-1.323 3.156-2.956 3.156H3.52c-1.633 0-2.956-1.413-2.956-3.156V3.758C.563 2.014 1.886.6 3.519.6H91.48m0-.601H3.52C1.583 0 0 1.69 0 3.758v22.545c0 2.066 1.583 3.757 3.519 3.757H91.48c1.936 0 3.519-1.69 3.519-3.757V3.758C95 1.69 93.417 0 91.481 0z" transform="translate(0 .894)"/>
        <g fill="#FFF" stroke="#FFF" stroke-width=".2">
            <path d="M4.518 3.186c0 .632-.176 1.135-.528 1.503-.394.444-.915.67-1.548.67-.612 0-1.126-.226-1.555-.677-.43-.451-.64-1.015-.64-1.676 0-.669.21-1.225.64-1.676.429-.45.943-.676 1.555-.676.302 0 .591.06.865.188.275.127.493.293.662.503l-.373.398c-.282-.353-.662-.533-1.154-.533-.443 0-.83.165-1.154.503-.324.331-.486.767-.486 1.3 0 .534.162.97.486 1.3.323.331.71.504 1.154.504.471 0 .865-.165 1.182-.503.204-.218.324-.526.352-.917H2.442v-.549H4.49c.014.12.028.233.028.338zM7.762 1.308L5.841 1.308 5.841 2.735 7.572 2.735 7.572 3.277 5.841 3.277 5.841 4.704 7.762 4.704 7.762 5.261 5.299 5.261 5.299.752 7.762.752 7.762 1.308zM10.049 5.261L9.507 5.261 9.507 1.308 8.325 1.308 8.325.752 11.224.752 11.224 1.308 10.042 1.308 10.042 5.261zM13.328 5.261L13.328.752 13.87.752 13.87 5.261zM16.277 5.261L15.735 5.261 15.735 1.308 14.553 1.308 14.553.752 17.452.752 17.452 1.308 16.27 1.308 16.27 5.261zM22.948 4.674c-.415.459-.93.684-1.548.684-.62 0-1.133-.225-1.549-.684-.415-.458-.619-1.014-.619-1.668 0-.654.204-1.217.62-1.668.415-.459.928-.684 1.548-.684.612 0 1.126.225 1.548.684.415.458.626 1.014.626 1.668-.007.661-.211 1.217-.626 1.668zM20.253 4.3c.31.338.696.503 1.147.503.45 0 .837-.165 1.147-.503.31-.339.471-.767.471-1.293 0-.526-.155-.954-.471-1.293-.31-.338-.697-.51-1.147-.51-.45 0-.838.165-1.147.503-.31.346-.472.774-.472 1.3s.162.954.472 1.293zM24.334 5.261L24.334.752 24.996.752 27.05 4.261 27.071 4.261 27.05 3.389 27.05.752 27.592.752 27.592 5.261 27.029 5.261 24.883 1.586 24.862 1.586 24.883 2.457 24.883 5.261z" transform="translate(0 .894) translate(28.852 4.509)"/>
        </g>
        <path fill="#FFF" d="M47.95 16.345c-1.653 0-3.004 1.345-3.004 3.194 0 1.841 1.35 3.194 3.004 3.194s3.005-1.353 3.005-3.194c0-1.849-1.35-3.194-3.005-3.194zm0 5.133c-.907 0-1.689-.797-1.689-1.939 0-1.15.782-1.939 1.69-1.939.907 0 1.688.79 1.688 1.939 0 1.142-.788 1.939-1.689 1.939zm-6.558-5.133c-1.654 0-3.005 1.345-3.005 3.194 0 1.841 1.351 3.194 3.005 3.194s3.005-1.353 3.005-3.194c0-1.849-1.351-3.194-3.005-3.194zm0 5.133c-.908 0-1.689-.797-1.689-1.939 0-1.15.781-1.939 1.689-1.939s1.689.79 1.689 1.939c0 1.142-.781 1.939-1.69 1.939zm-7.797-4.148v1.352h3.04c-.092.76-.33 1.323-.69 1.706-.443.474-1.133.992-2.343.992-1.872 0-3.336-1.608-3.336-3.607s1.464-3.607 3.336-3.607c1.006 0 1.745.42 2.287.97l.894-.955c-.76-.774-1.767-1.368-3.188-1.368-2.562 0-4.715 2.225-4.715 4.968 0 2.735 2.153 4.967 4.715 4.967 1.386 0 2.428-.481 3.244-1.39.837-.895 1.098-2.157 1.098-3.172 0-.315-.021-.608-.07-.849h-4.272v-.007zm31.885 1.052c-.247-.714-1.007-2.037-2.562-2.037-1.541 0-2.822 1.293-2.822 3.194 0 1.789 1.267 3.194 2.97 3.194 1.372 0 2.167-.894 2.491-1.413l-1.02-.729c-.338.534-.803.887-1.471.887-.669 0-1.147-.33-1.45-.97l4.004-1.766-.14-.36zm-4.082 1.067c-.035-1.233.894-1.864 1.562-1.864.521 0 .964.278 1.112.676l-2.674 1.188zm-3.251 3.096h1.316v-9.394h-1.316v9.394zm-2.153-5.486h-.05c-.295-.376-.858-.714-1.576-.714-1.499 0-2.871 1.405-2.871 3.21 0 1.788 1.372 3.185 2.871 3.185.71 0 1.28-.338 1.576-.729h.043v.459c0 1.225-.613 1.879-1.598 1.879-.802 0-1.302-.617-1.506-1.135l-1.147.51c.331.85 1.204 1.887 2.653 1.887 1.541 0 2.843-.97 2.843-3.329v-5.741h-1.245v.518h.007zm-1.513 4.419c-.908 0-1.668-.812-1.668-1.924 0-1.127.76-1.946 1.668-1.946.893 0 1.597.826 1.597 1.946.007 1.112-.697 1.924-1.597 1.924zm17.163-8.327H68.5v9.394h1.315v-3.562h1.837c1.457 0 2.885-1.127 2.885-2.916 0-1.788-1.442-2.916-2.892-2.916zm.028 4.524h-1.865v-3.224h1.865c.985 0 1.541.872 1.541 1.609 0 .736-.556 1.615-1.54 1.615zm8.121-1.345c-.95 0-1.935.451-2.343 1.435l1.168.519c.246-.519.71-.691 1.196-.691.683 0 1.372.436 1.38 1.21v.097c-.24-.143-.747-.36-1.373-.36-1.26 0-2.533.736-2.533 2.111 0 1.255 1.027 2.067 2.181 2.067.88 0 1.372-.421 1.675-.917h.042v.729h1.267v-3.6c.007-1.668-1.161-2.6-2.66-2.6zm-.162 5.148c-.43 0-1.027-.233-1.027-.797 0-.721.746-1 1.393-1 .577 0 .852.136 1.196.316-.098.865-.802 1.48-1.562 1.48zm7.445-4.945l-1.506 4.073h-.042l-1.562-4.073H82.55l2.344 5.696-1.337 3.164h1.372l3.61-8.86h-1.464zm-11.822 6.012h1.316v-9.394h-1.316v9.394z" transform="translate(0 .894)"/>
        <g>
            <path fill="url(#prefix__a)" d="M1.013.406C.81.639.69.999.69 1.458V18.08c0 .466.12.827.323 1.052l.05.053L9.78 9.882v-.225L1.063.353l-.05.053z" transform="translate(0 .894) translate(6.333 5.26)"/>
            <path fill="url(#prefix__b)" d="M12.688 12.986L9.78 9.882v-.225l2.907-3.104.063.038 3.441 2.089c.985.594.985 1.57 0 2.172l-3.44 2.089-.064.045z" transform="translate(0 .894) translate(6.333 5.26)"/>
            <path fill="url(#prefix__c)" d="M12.751 12.948L9.781 9.77l-8.768 9.363c.324.368.859.414 1.464.045l10.274-6.23" transform="translate(0 .894) translate(6.333 5.26)"/>
            <path fill="url(#prefix__d)" d="M12.751 6.598L2.47.361C1.865-.008 1.33.038 1.006.406L9.781 9.77l2.97-3.172z" transform="translate(0 .894) translate(6.333 5.26)"/>
            <g fill="#000">
                <path d="M12.688.098L2.47 6.298c-.57.345-1.084.323-1.407.007l-.05.053.05.052c.33.316.837.338 1.407-.007L12.751.165l-.063-.067z" opacity=".2" transform="translate(0 .894) translate(6.333 5.26) translate(0 12.776)"/>
                <path d="M1.013 6.252C.81 6.02.69 5.66.69 5.2v.113c0 .466.12.827.323 1.052l.05-.052-.05-.06z" opacity=".12" transform="translate(0 .894) translate(6.333 5.26) translate(0 12.776)"/>
            </g>
            <path fill="#000" d="M16.192 10.746l-3.511 2.127.063.068 3.441-2.09c.493-.3.74-.69.74-1.081-.036.353-.282.706-.733.976z" opacity=".12" transform="translate(0 .894) translate(6.333 5.26)"/>
            <path fill="#FFF" d="M2.47.466l13.722 8.327c.444.27.697.616.74.977 0-.391-.247-.79-.74-1.083L2.47.361C1.485-.233.683.263.683 1.465v.113c0-1.21.809-1.706 1.787-1.112z" opacity=".25" transform="translate(0 .894) translate(6.333 5.26)"/>
        </g>
    </g>
</svg>
